<?xml version="1.0" encoding="UTF-8"?>
<svg width="32" height="32" viewBox="0 0 32 32" fill="none" xmlns="http://www.w3.org/2000/svg">
  <path d="M16 2H10.6667C7.72 2 5.33333 4.38667 5.33333 7.33333C5.33333 10.28 7.72 12.6667 10.6667 12.6667H16V2Z" fill="#F24E1E"/>
  <path d="M16 12.6667H10.6667C7.72 12.6667 5.33333 15.0533 5.33333 18C5.33333 20.9467 7.72 23.3333 10.6667 23.3333H16V12.6667Z" fill="#A259FF"/>
  <path d="M16 23.3333H10.6667C7.72 23.3333 5.33333 25.72 5.33333 28.6667C5.33333 31.6133 7.72 34 10.6667 34H16V23.3333Z" fill="#0ACF83"/>
  <path d="M26.6667 12.6667H21.3333V2H26.6667C29.6133 2 32 4.38667 32 7.33333C32 10.28 29.6133 12.6667 26.6667 12.6667Z" fill="#1ABCFE"/>
  <path d="M21.3333 12.6667H16V23.3333H21.3333C24.28 23.3333 26.6667 20.9467 26.6667 18C26.6667 15.0533 24.28 12.6667 21.3333 12.6667Z" fill="#FF7262"/>
</svg>
